<!DOCTYPE svg PUBLIC "-//W3C//DTD SVG 1.1//EN" "http://www.w3.org/Graphics/SVG/1.1/DTD/svg11.dtd">
<!-- Uploaded to: SVG Repo, www.svgrepo.com, Transformed by: SVG Repo Mixer Tools -->
<svg version="1.1" id="Uploaded to svgrepo.com" xmlns="http://www.w3.org/2000/svg" xmlns:xlink="http://www.w3.org/1999/xlink" width="64px" height="64px" viewBox="0 0 32 32" xml:space="preserve" fill="#000000" stroke="#000000" stroke-width="0.00032">
<g id="SVGRepo_bgCarrier" stroke-width="0"/>
<g id="SVGRepo_tracerCarrier" stroke-linecap="round" stroke-linejoin="round"/>
<g id="SVGRepo_iconCarrier"> <style type="text/css"> .linesandangles_een{fill:#5286ff;} </style> <path class="linesandangles_een" d="M21,1.586L2.586,20L12,29.414L30.414,11L21,1.586z M5.414,20L21,4.414L27.586,11L26.5,12.086 l-1.793-1.793l-1.414,1.414l1.793,1.793L23.5,15.086l-3.793-3.793l-1.414,1.414l3.793,3.793L20.5,18.086l-1.793-1.793l-1.414,1.414 l1.793,1.793L17.5,21.086l-1.793-1.793l-1.414,1.414l1.793,1.793L14.5,24.086l-3.793-3.793l-1.414,1.414l3.793,3.793L12,26.586 L5.414,20z"/> </g>
</svg>